<svg xmlns="http://www.w3.org/2000/svg" width="62" height="153.125" viewBox="0 0 62 153.125">
  <path id="Tracé_871" data-name="Tracé 871" d="M37.574,106.661V93.173h9.909a2.308,2.308,0,0,0,0-4.616H37.574V83.645h5.759a2.308,2.308,0,0,0,0-4.616H37.574V74.117h9.909a2.308,2.308,0,0,0,0-4.616H37.574V64.611h5.759a2.308,2.308,0,1,0,0-4.616H37.574V55.062h9.909a2.308,2.308,0,0,0,0-4.616H37.574V39.436a12.005,12.005,0,0,0-24.01,0v66.547a24.942,24.942,0,1,0,24.01.678ZM24.87,148.88a20.686,20.686,0,0,1-6.839-40.229h.233V41.341a7.22,7.22,0,1,1,14.44,0V109.1a20.686,20.686,0,0,1-7.834,39.827Zm14.461-20.686A13.847,13.847,0,1,1,20.423,115.32c.445-.169.889-.318,1.355-.445V49.535h6.585v65.108a13.342,13.342,0,0,1,2.266.678,13.847,13.847,0,0,1,8.787,12.873Zm0-118.083a5.167,5.167,0,1,1,.085,0Zm0-7.982a3.085,3.085,0,1,0,.085,0ZM58.387,30.077h3.578A6.818,6.818,0,0,1,60.653,33.7a8.469,8.469,0,0,1-3.218,2.753A9.443,9.443,0,0,1,53.2,37.488a9.168,9.168,0,0,1-7.22-3.028,12.132,12.132,0,0,1-2.689-8.279v-.635a13.254,13.254,0,0,1,1.207-5.78,9.062,9.062,0,0,1,3.409-3.917,9.7,9.7,0,0,1,5.272-1.4,8.872,8.872,0,0,1,6.2,2.244,7.94,7.94,0,0,1,2.625,5.8H58.514a5.23,5.23,0,0,0-1.63-3.43,5.1,5.1,0,0,0-3.621-1.4,5.293,5.293,0,0,0-4.489,2.117A9.74,9.74,0,0,0,47.186,25.8v.72a9.676,9.676,0,0,0,1.5,5.78,5.314,5.314,0,0,0,4.531,2.117,5.4,5.4,0,0,0,3.536-1.228,4.235,4.235,0,0,0,1.757-3.112Z" transform="translate(-0.008 0.01)" fill="#1078ad"/>
</svg>
